<?xml version="1.0" encoding="UTF-8"?>
<svg version="1.1" viewBox="0 0 156 190" xmlns="http://www.w3.org/2000/svg" xmlns:xlink="http://www.w3.org/1999/xlink">
<title>avataaar</title>
<desc>Created with Sketch.</desc>
<defs>
<path id="d" d="m57.576 103.06c-12.415-5.8978-21.511-17.648-23.723-31.686-4.5522-0.49606-8.0949-4.3528-8.0949-9.037v-8.961c0-4.5045 3.2762-8.2439 7.5758-8.9652v-1.9872c0-23.43 18.994-42.424 42.424-42.424 23.43-4.3041e-15 42.424 18.994 42.424 42.424v1.9872c4.2996 0.72133 7.5758 4.4607 7.5758 8.9652v8.961c0 4.6842-3.5427 8.5409-8.0949 9.037-2.212 14.038-11.308 25.788-23.723 31.686v13.369c31.824 0.15154 57.576 25.997 57.576 57.856h-151.52c-3.9017e-15 -31.86 25.752-57.705 57.576-57.856v-13.369z"/>
<path id="c" d="m81.818 9.3873v12.649c0 10.042 8.1403 18.182 18.182 18.182 10.042 0 18.182-8.1403 18.182-18.182v-12.649c13.713 1.4546 24.242 5.4528 24.242 15.804 0 0.39366-0.015228 0.78324-0.045281 1.1687 19.728 9.3084 33.379 29.38 33.379 52.64h-151.52c0-23.26 13.651-43.331 33.379-52.64-0.030053-0.38544-0.045281-0.77502-0.045281-1.1687 0-10.352 10.53-14.35 24.242-15.804z"/>
<rect id="f" width="200" height="200"/>
<path id="b" d="m15.949 112.14c-0.0013364-0.21105-0.0020048-0.42212-0.0020048-0.63322v-48.582c0-2.6052 0.21657-5.1599 0.6327-7.6469-2.4776-20.576 8.4061-36.93 21.39-45.99 15.116-10.543 40.584-13.584 49.397-1.0556 6.5698-2.7436 16.306-0.24285 23.506 6.0556 7.6751 7.1059 13.713 23.277 8.9356 35.753 0.52246 2.5925 0.79642 5.2733 0.79642 8.016v8.7435c-0.66928-3.7771-3.6652-6.7505-7.4539-7.3861v-0.126c-4.5838-15.383-18.051-22.443-26.253-29.445-12.83 13.497-52.859 13.545-66.394 40.159v6.6015c0 4.6625 3.5016 8.5072 8.0186 9.0478 2.0383 14.353 11.243 26.4 23.876 32.401v0.52101c2.2253 31.325-5.0436 70.57-52.398 58.571 10.392-5.7205 15.865-42.529 15.949-65.006zm72.9 5.9133c12.633-6.0013 21.838-18.048 23.876-32.401 4.4897-0.53726 7.9763-4.3389 8.0182-8.9634 0.78601 14.852 4.8771 29.366 12.001 42.473l12.989 23.896c5.6034 10.308 4.8125 22.376-1.025 31.644-6.4539-24.848-29.008-43.205-55.86-43.27v-13.378zm-21.366 71.235h50.761-50.761z"/>
<filter id="i" x="-1%" y="-2.8%" width="102%" height="113.5%">
<feOffset dx="0" dy="2" in="SourceAlpha" result="shadowOffsetOuter1"/>
<feColorMatrix in="shadowOffsetOuter1" result="shadowMatrixOuter1" values="0 0 0 0 0   0 0 0 0 0   0 0 0 0 0  0 0 0 0.16 0"/>
<feMerge>
<feMergeNode in="shadowMatrixOuter1"/>
<feMergeNode in="SourceGraphic"/>
</feMerge>
</filter>
</defs>
<g fill="none" fill-rule="evenodd">
<g transform="translate(-24 -10)" fill-rule="evenodd">
<g transform="translate(24.242 25.714)">
<mask id="e" fill="white">
<use xlink:href="#d"/>
</mask>
<use fill="#D0C6AC" xlink:href="#d"/>
<g fill="#FFDBB4" mask="url(#e)">
<g transform="translate(-24.242)">
<rect width="200" height="174"/>
</g>
</g>
<path d="m118.18 64.719v5.7143c0 23.43-18.994 42.424-42.424 42.424-23.43 0-42.424-18.994-42.424-42.424v-5.7143c0 23.43 18.994 42.424 42.424 42.424 23.43 0 42.424-18.994 42.424-42.424z" fill="#000" fill-opacity=".1" mask="url(#e)"/>
</g>
<g transform="translate(0 121.43)">
<mask id="a" fill="white">
<use xlink:href="#c"/>
</mask>
<use fill="#B7C1DB" xlink:href="#c"/>
<g fill="#FF5C5C" mask="url(#a)">
<rect width="200" height="79"/>
</g>
<path d="m77.273 44.34v34.66h-5.303v-37.238c1.6695 0.94067 3.4445 1.803 5.303 2.5774zm50.758-2.5774v28.841c0 1.4644-1.1871 2.6515-2.6515 2.6515-1.4644 0-2.6515-1.1871-2.6515-2.6515v-26.263c1.8585-0.77439 3.6335-1.6367 5.303-2.5774z" fill="#F4F4F4" mask="url(#a)"/>
<path d="m100 48.836c21.348 0 42.424-11.872 42.424-26.517 0-6.73-4.4508-10.774-11.333-13.18 11.402 2.0445 19.288 6.1179 19.288 14.064 0 14.157-25.029 25.634-50.379 25.634zm-0.003836-1e-7c-25.349-0.0011576-50.375-11.477-50.375-25.634 0-7.9465 7.8858-12.02 19.288-14.064z" fill="#000" fill-opacity=".16" mask="url(#a)"/>
</g>
<g transform="translate(57.576 58.571)" fill="#000">
<g transform="translate(1.5152 37.143)" fill-opacity=".7">
<path d="m30.37 10.568c0 5.4475 4.759 9.8636 10.63 9.8636s10.63-4.4161 10.63-9.8636"/>
</g>
<g transform="translate(21.212 28.571)" fill-opacity=".16">
<path d="m12 5.6667c0 3.1296 4.0294 5.6667 9 5.6667s9-2.5371 9-5.6667"/>
</g>
<g transform="translate(0 5.7143)" fill-opacity=".6">
<ellipse cx="22.768" cy="15.5" rx="4.5536" ry="4.2273"/>
<path transform="translate(61.665 15.329) rotate(-4) translate(-61.665 -15.329)" d="m53.438 17.053c1.4014-2.6764 4.5568-4.5424 8.2248-4.5424 3.6551 0 6.8012 1.8528 8.2099 4.5141 0.41848 0.79055-0.17702 1.4375-0.77771 0.95811-1.8602-1.4846-4.5019-2.4118-7.4322-2.4118-2.8387 0-5.4065 0.87009-7.2554 2.2742-0.67601 0.51337-1.3793-0.0093399-0.96943-0.79214z"/>
</g>
<g fill-opacity=".6">
<g transform="translate(9.1071 4.25)" fill-rule="nonzero">
<path d="m2.7551 7.904c2.9711-3.902 11.117-6.0901 18.133-4.4819 0.8141 0.18659 1.6361-0.27811 1.836-1.0379s-0.29797-1.5271-1.1121-1.7136c-8.1483-1.8676-17.58 0.66612-21.331 5.5922-0.48561 0.63775-0.32535 1.5222 0.35796 1.9754 0.68331 0.45324 1.6309 0.30366 2.1165-0.3341z"/>
<path transform="translate(55.402 4.2778) scale(-1 1) translate(-55.402 -4.2778)" d="m46.773 7.904c2.9711-3.902 11.117-6.0901 18.133-4.4819 0.8141 0.18659 1.6361-0.27811 1.836-1.0379s-0.29797-1.5271-1.1121-1.7136c-8.1483-1.8676-17.58 0.66612-21.331 5.5922-0.48561 0.63775-0.32535 1.5222 0.35796 1.9754 0.68331 0.45324 1.6309 0.30366 2.1165-0.3341z"/>
</g>
</g>
</g>
<g>
<mask id="h" fill="white">
<use xlink:href="#f"/>
</mask>
<g mask="url(#h)">
<g transform="translate(-.75758)" fill-rule="evenodd">
<g transform="translate(30.376 10.714)">
<mask id="g" fill="white">
<use xlink:href="#b"/>
</mask>
<use fill="#272C2E" xlink:href="#b"/>
<g fill="#724133" mask="url(#g)">
<g transform="translate(-29.617 -10.714)">
<rect width="200" height="200"/>
</g>
</g>
</g>
<path d="m50.88 80.714c13.534-26.614 53.564-26.662 66.394-40.159 8.1847 6.9879 21.614 14.033 26.225 29.351-4.6105-13.287-18.04-17.979-26.225-24.043-12.83 11.713-52.859 11.755-66.394 34.851z" fill="#000" fill-opacity=".16"/>
<g transform="translate(47.083 60.714)" fill="none">
<g transform="translate(3.8028 1.4444)" fill-rule="nonzero" filter="url(#i)">
<path d="m50.197 8.0247c-8.3947 0-9.6055-6.561-26.87-7.4897-17.253-0.73951-22.707 4.123-22.736 7.4897 0.027963 3.1006-0.8585 11.158 10.335 20.597 11.235 11.203 22.745 7.4044 26.87 3.7449 4.1383-1.6912 8.8577-16.868 12.402-16.852s8.2634 15.161 12.402 16.852c4.1251 3.6595 15.635 7.4586 26.87-3.7449 11.193-9.4383 10.307-17.496 10.335-20.597-0.029475-3.3667-5.4829-8.2292-22.736-7.4897-17.265 0.92868-18.476 7.4897-26.87 7.4897z" fill="#F4F4F4"/>
<path d="m41.929 15.514c0.28974-5.5309-9.8217-11.439-20.669-11.235-10.842 0.21564-12.254 6.827-12.402 9.3621-0.26531 5.874 6.3639 19.077 18.602 18.724 12.239-0.36759 14.301-13.202 14.469-16.852z" fill="#2F383B"/>
<path transform="translate(75 18.323) scale(-1 1) translate(-75 -18.323)" d="m91.536 15.514c0.28974-5.5309-9.8217-11.439-20.669-11.235-10.842 0.21564-12.254 6.827-12.402 9.3621-0.26531 5.874 6.3639 19.077 18.602 18.724 12.239-0.36759 14.301-13.202 14.469-16.852z" fill="#2F383B"/>
</g>
</g>
</g>
</g>
</g>
</g>
</g>
</svg>
