<?xml version="1.0" encoding="UTF-8"?>
<svg version="1.1" viewBox="0 0 152 200" xmlns="http://www.w3.org/2000/svg" xmlns:xlink="http://www.w3.org/1999/xlink">
<title>avataaar</title>
<desc>Created with Sketch.</desc>
<defs>
<path id="d" d="m57.576 103.06c-12.415-5.8978-21.511-17.648-23.723-31.686-4.5522-0.49606-8.0949-4.3528-8.0949-9.037v-8.961c0-4.5045 3.2762-8.2439 7.5758-8.9652v-1.9872c0-23.43 18.994-42.424 42.424-42.424 23.43-4.3041e-15 42.424 18.994 42.424 42.424v1.9872c4.2996 0.72133 7.5758 4.4607 7.5758 8.9652v8.961c0 4.6842-3.5427 8.5409-8.0949 9.037-2.212 14.038-11.308 25.788-23.723 31.686v13.369c31.824 0.15154 57.576 25.997 57.576 57.856h-151.52c-3.9017e-15 -31.86 25.752-57.705 57.576-57.856v-13.369z"/>
<path id="c" d="m137.77 24.449c22.179 8.1929 37.992 29.525 37.992 54.551h-151.52c0-25.326 16.194-46.869 38.792-54.84-0.10325 0.64027-0.156 1.2888-0.156 1.9442 0 11.693 16.789 21.172 37.5 21.172 20.711 0 37.5-9.479 37.5-21.172 0-0.557-0.038098-1.109-0.1129-1.6552z"/>
<path id="b" d="m22.019 10.997c1.0706 6.7796 9.1583 12.253 18.981 12.253 9.8462 0 17.954-5.5072 18.981-12.866 0.076844-0.28139-0.17063-1.2253-1.6506-1.2253h-34.662c-1.3595 0-1.7491 0.87397-1.6506 1.8379z"/>
<rect id="g" width="200" height="200"/>
<path id="a" d="m87.285 20.241c-2.3491-2.1288-3.7512-4.8177-3.7512-7.7409 0-6.9036 7.8199-12.5 17.466-12.5 9.6463 0 17.466 5.5964 17.466 12.5 0 2.9054-1.3851 5.5793-3.7084 7.702 4.0413 1.0034 8.1635 2.5495 12.296 4.8024 15.331 8.3569 18.13 27.218 18.676 34.395 0.24092 3.1792-0.11661 6.3921-0.8738 9.4847-0.44589 1.8205-1.2606 1.8661-1.6192-0.1693-0.94289-5.3524 0.47748-11.419-2.6096-16.357-2.6078-4.1712-11.351-23.689-39.628-22.593-28.276 1.0963-31.752 13.464-36.613 19.412-1.9639 2.4034-3.2468 5.4919-4.2547 8.3404-0.70531 1.9934-1.1016 4.0448-1.2534 6.1359-0.081164 1.1185-0.14409 2.2532-0.08553 3.3734 0.044692 0.85367 0.5065 1.9619 0.38039 2.7652-0.37911 2.413-1.7599-0.57333-2.016-1.4346-0.69811-2.3466-1.0474-4.8622-0.9452-7.2993 0.26044-6.2071 1.9536-12.842 4.8097-18.452 5.8171-11.426 12.597-19.15 24.058-21.87 0.72039-0.17097 1.4555-0.3366 2.2044-0.49481z"/>
</defs>
<g fill="none" fill-rule="evenodd">
<g transform="translate(-24)" fill-rule="evenodd">
<g transform="translate(24.242 25.714)">
<mask id="e" fill="white">
<use xlink:href="#d"/>
</mask>
<use fill="#D0C6AC" xlink:href="#d"/>
<g fill="#D08B5B" mask="url(#e)">
<g transform="translate(-24.242)">
<rect width="200" height="174"/>
</g>
</g>
<path d="m118.18 64.719v5.7143c0 23.43-18.994 42.424-42.424 42.424-23.43 0-42.424-18.994-42.424-42.424v-5.7143c0 23.43 18.994 42.424 42.424 42.424 23.43 0 42.424-18.994 42.424-42.424z" fill="#000" fill-opacity=".1" mask="url(#e)"/>
</g>
<g transform="translate(0 121.43)">
<mask id="j" fill="white">
<use xlink:href="#c"/>
</mask>
<use fill="#E6E6E6" xlink:href="#c"/>
<g fill="#fff" mask="url(#j)">
<rect width="200" height="79"/>
</g>
</g>
<g transform="translate(57.576 58.571)">
<g transform="translate(1.5152 37.143)" fill-rule="evenodd">
<mask id="i" fill="white">
<use xlink:href="#b"/>
</mask>
<use fill="#000000" fill-opacity=".7" xlink:href="#b"/>
<rect x="29.611" y="1.4091" width="23.537" height="11.273" rx="5" fill="#fff" mask="url(#i)"/>
<path d="m50.041 16.973c0.045696 0.16782 0.070086 0.34442 0.070086 0.52672v5.75c0 4.2802-3.4698 7.75-7.75 7.75h-1.963c-4.2802 0-7.75-3.4698-7.75-7.75v-5.75c0-0.1823 0.02439-0.3589 0.070086-0.52672-0.046085-0.13538-0.070086-0.27452-0.070086-0.41646 0-1.3619 2.2096-2.4659 4.9352-2.4659 1.5264 0 2.891 0.34626 3.7963 0.89017 0.90527-0.5439 2.2699-0.89017 3.7963-0.89017 2.7256 0 4.9352 1.104 4.9352 2.4659 0 0.14194-0.024001 0.28108-0.070086 0.41646z" fill="#FF4F6D"/>
</g>
<g transform="translate(21.212 28.571)" fill="#000" fill-opacity=".16">
<path d="m12 5.6667c0 3.1296 4.0294 5.6667 9 5.6667s9-2.5371 9-5.6667"/>
</g>
<g transform="translate(0 5.7143)">
<ellipse cx="62.232" cy="15.5" rx="9.1071" ry="8.4545" fill="#fff"/>
<ellipse cx="62.232" cy="15.5" rx="4.5536" ry="4.2273" fill="#000" fill-opacity=".7"/>
<path d="m12.264 17.929c1.4014-2.6764 4.5568-4.5424 8.2248-4.5424 3.6551 0 6.8012 1.8528 8.2099 4.5141 0.41848 0.79055-0.17702 1.4375-0.77771 0.95811-1.8602-1.4846-4.5019-2.4118-7.4322-2.4118-2.8387 0-5.4065 0.87009-7.2554 2.2742-0.67601 0.51337-1.3793-0.00934-0.96943-0.79214z" fill="#000" fill-opacity=".6"/>
</g>
<g fill="#000" fill-opacity=".6">
<g transform="translate(9.1071 4.25)" fill-rule="nonzero">
<path d="m2.7551 7.904c2.9711-3.902 11.117-6.0901 18.133-4.4819 0.8141 0.18659 1.6361-0.27811 1.836-1.0379s-0.29797-1.5271-1.1121-1.7136c-8.1483-1.8676-17.58 0.66612-21.331 5.5922-0.48561 0.63775-0.32535 1.5222 0.35796 1.9754 0.68331 0.45324 1.6309 0.30366 2.1165-0.3341z"/>
<path transform="translate(55.402 4.2778) scale(-1 1) translate(-55.402 -4.2778)" d="m46.773 7.904c2.9711-3.902 11.117-6.0901 18.133-4.4819 0.8141 0.18659 1.6361-0.27811 1.836-1.0379s-0.29797-1.5271-1.1121-1.7136c-8.1483-1.8676-17.58 0.66612-21.331 5.5922-0.48561 0.63775-0.32535 1.5222 0.35796 1.9754 0.68331 0.45324 1.6309 0.30366 2.1165-0.3341z"/>
</g>
</g>
</g>
<g>
<mask id="h" fill="white">
<use xlink:href="#g"/>
</mask>
<g mask="url(#h)">
<g transform="translate(-.75758)">
<mask id="f" fill="white">
<use xlink:href="#a"/>
</mask>
<use fill="#28354B" fill-rule="evenodd" xlink:href="#a"/>
<g fill="none" fill-rule="evenodd" mask="url(#f)">
<g transform="translate(.7594)" fill="#724133">
<rect width="200" height="200"/>
</g>
</g>
<g fill="none" mask="url(#f)"></g>
</g>
</g>
</g>
</g>
</g>
</svg>
