<?xml version="1.0" encoding="UTF-8"?>
<svg version="1.1" viewBox="0 0 186 199" xmlns="http://www.w3.org/2000/svg" xmlns:xlink="http://www.w3.org/1999/xlink">
<title>avataaar</title>
<desc>Created with Sketch.</desc>
<defs>
<path id="d" d="m57.576 103.06c-12.415-5.8978-21.511-17.648-23.723-31.686-4.5522-0.49606-8.0949-4.3528-8.0949-9.037v-8.961c0-4.5045 3.2762-8.2439 7.5758-8.9652v-1.9872c0-23.43 18.994-42.424 42.424-42.424 23.43-4.3041e-15 42.424 18.994 42.424 42.424v1.9872c4.2996 0.72133 7.5758 4.4607 7.5758 8.9652v8.961c0 4.6842-3.5427 8.5409-8.0949 9.037-2.212 14.038-11.308 25.788-23.723 31.686v13.369c31.824 0.15154 57.576 25.997 57.576 57.856h-151.52c-3.9017e-15 -31.86 25.752-57.705 57.576-57.856v-13.369z"/>
<path id="c" d="m137.77 24.449c22.179 8.1929 37.992 29.525 37.992 54.551h-151.52c0-25.326 16.194-46.869 38.792-54.84-0.10325 0.64027-0.156 1.2888-0.156 1.9442 0 11.693 16.789 21.172 37.5 21.172 20.711 0 37.5-9.479 37.5-21.172 0-0.557-0.038098-1.109-0.1129-1.6552z"/>
<path id="b" d="m26.664 10.658c0.8032 6.6874 6.9154 11.887 14.336 11.887 7.4439 0 13.571-5.2319 14.344-11.949 0.06219-0.5406-0.58844-1.4373-1.4039-1.4373h-25.781c-0.82016 0-1.5753 0.83027-1.495 1.4993z"/>
<rect id="h" width="200" height="200"/>
<path id="g" d="m118.47 129.01c13.315-5.9494 22.821-18.215 24.143-32.68 4.3873-0.65698 7.7518-4.4415 7.7518-9.0118v-8.203c0-4.5154-3.2841-8.2637-7.594-8.9868v-4.4117c0-5.6752-1.2566-11.074-3.5223-15.965-7.5384-11.892-71.421-11.318-77.954-0.11693-2.3 4.9212-3.5767 10.361-3.5767 16.082v4.4117c-4.3099 0.72307-7.594 4.4714-7.594 8.9868v8.203c0 4.5703 3.3645 8.3549 7.7518 9.0118 1.3217 14.465 10.828 26.731 24.143 32.68v13.135c-31.888 0.077068-57.714 25.951-57.714 57.857h-24.301v-200h200.48v200h-24.301c0-31.906-25.826-57.78-57.714-57.857v-13.135z"/>
</defs>
<g fill="none" fill-rule="evenodd">
<g transform="translate(-7 -1)" fill-rule="evenodd">
<g transform="translate(24.242 25.714)">
<mask id="f" fill="white">
<use xlink:href="#d"/>
</mask>
<use fill="#D0C6AC" xlink:href="#d"/>
<g fill="#FFDBB4" mask="url(#f)">
<g transform="translate(-24.242)">
<rect width="200" height="174"/>
</g>
</g>
<path d="m118.18 64.719v5.7143c0 23.43-18.994 42.424-42.424 42.424-23.43 0-42.424-18.994-42.424-42.424v-5.7143c0 23.43 18.994 42.424 42.424 42.424 23.43 0 42.424-18.994 42.424-42.424z" fill="#000" fill-opacity=".1" mask="url(#f)"/>
</g>
<g transform="translate(0 121.43)" fill="#E6E6E6">
<mask id="j" fill="white">
<use xlink:href="#c"/>
</mask>
<use xlink:href="#c"/>
<g mask="url(#j)">
<rect width="200" height="79"/>
</g>
</g>
<g transform="translate(57.576 58.571)">
<g transform="translate(1.5152 37.143)" fill-rule="evenodd">
<mask id="e" fill="white">
<use xlink:href="#b"/>
</mask>
<use fill="#000000" fill-opacity=".7" xlink:href="#b"/>
<rect x="29.611" y="1.4091" width="23.537" height="11.273" rx="5" fill="#fff" mask="url(#e)"/>
<g fill="#FF4F6D" mask="url(#e)">
<g transform="translate(28.852 16.909)">
<ellipse cx="8.3519" cy="7.75" rx="8.3519" ry="7.75"/>
<ellipse cx="15.944" cy="7.75" rx="8.3519" ry="7.75"/>
</g>
</g>
</g>
<g transform="translate(21.212 28.571)" fill="#000" fill-opacity=".16">
<path d="m12 5.6667c0 3.1296 4.0294 5.6667 9 5.6667s9-2.5371 9-5.6667"/>
</g>
<g transform="translate(0 5.7143)" fill="#000" fill-opacity=".6">
<ellipse cx="22.768" cy="15.5" rx="4.5536" ry="4.2273"/>
<ellipse cx="62.232" cy="15.5" rx="4.5536" ry="4.2273"/>
</g>
<g fill="#000" fill-opacity=".6">
<g transform="translate(9.1071 4.25)" fill-rule="nonzero">
<path d="m2.7551 7.904c2.9711-3.902 11.117-6.0901 18.133-4.4819 0.8141 0.18659 1.6361-0.27811 1.836-1.0379s-0.29797-1.5271-1.1121-1.7136c-8.1483-1.8676-17.58 0.66612-21.331 5.5922-0.48561 0.63775-0.32535 1.5222 0.35796 1.9754 0.68331 0.45324 1.6309 0.30366 2.1165-0.3341z"/>
<path transform="translate(55.402 4.2778) scale(-1 1) translate(-55.402 -4.2778)" d="m46.773 7.904c2.9711-3.902 11.117-6.0901 18.133-4.4819 0.8141 0.18659 1.6361-0.27811 1.836-1.0379s-0.29797-1.5271-1.1121-1.7136c-8.1483-1.8676-17.58 0.66612-21.331 5.5922-0.48561 0.63775-0.32535 1.5222 0.35796 1.9754 0.68331 0.45324 1.6309 0.30366 2.1165-0.3341z"/>
</g>
</g>
</g>
<g>
<mask id="i" fill="white">
<use xlink:href="#h"/>
</mask>
<g mask="url(#i)">
<g transform="translate(-.75758)">
<g transform="translate(.7594)" fill-rule="evenodd">
<mask id="a" fill="white">
<use xlink:href="#g"/>
</mask>
<path d="m100.62 1.4286c18.456 0 34.479 12.718 38.667 30.693l4.9983 21.45h-87.331l4.9983-21.45c4.1885-17.975 20.211-30.693 38.667-30.693z" fill="#1F333C" mask="url(#a)"/>
<ellipse cx="100.24" cy="62.5" rx="92.647" ry="41.071" fill="#1F333C" mask="url(#a)"/>
<ellipse cx="100.24" cy="58.571" rx="47.083" ry="17.857" fill="#15232A" mask="url(#a)"/>
</g>
</g>
</g>
</g>
</g>
</g>
</svg>
