<?xml version="1.0" encoding="UTF-8"?>
<svg version="1.1" viewBox="0 0 152 187" xmlns="http://www.w3.org/2000/svg" xmlns:xlink="http://www.w3.org/1999/xlink">
<title>avataaar</title>
<desc>Created with Sketch.</desc>
<defs>
<path id="e" d="m57.576 103.06c-12.415-5.8978-21.511-17.648-23.723-31.686-4.5522-0.49606-8.0949-4.3528-8.0949-9.037v-8.961c0-4.5045 3.2762-8.2439 7.5758-8.9652v-1.9872c0-23.43 18.994-42.424 42.424-42.424 23.43-4.3041e-15 42.424 18.994 42.424 42.424v1.9872c4.2996 0.72133 7.5758 4.4607 7.5758 8.9652v8.961c0 4.6842-3.5427 8.5409-8.0949 9.037-2.212 14.038-11.308 25.788-23.723 31.686v13.369c31.824 0.15154 57.576 25.997 57.576 57.856h-151.52c-3.9017e-15 -31.86 25.752-57.705 57.576-57.856v-13.369z"/>
<path id="c" d="m101.51 0.60091c28.259 3.9537 50.007 28.223 50.007 57.572h-151.52c-3.6264e-15 -29.612 22.14-54.053 50.769-57.673-0.0076325 0.15557-0.011476 0.31172-0.011476 0.46841 0 8.5199 11.362 15.427 25.379 15.427 14.016 0 25.379-6.9067 25.379-15.427 0-0.12265-0.002355-0.24497-0.007039-0.36693z"/>
<path id="b" d="m26.664 10.658c0.8032 6.6874 6.9154 11.887 14.336 11.887 7.4439 0 13.571-5.2319 14.344-11.949 0.06219-0.5406-0.58844-1.4373-1.4039-1.4373h-25.781c-0.82016 0-1.5753 0.83027-1.495 1.4993z"/>
<rect id="i" width="200" height="200"/>
<path id="a" d="m141.12 52.806c1.3344 0.70615 2.391 7.7851 2.4421 10.492 0.031982 1.6704 0.060617 8.0403-1.8176 7.4896-0.57185-0.16765-1.4447-3.5399-1.5688-5.5136-0.12414-1.9737-1.3161-8.6886-3.145-11.778-0.41787-0.70599-1.6145-1.9456-1.0975-2.5428 0.64132-0.74053 1.2641-0.31087 2.0471-0.014365 0.84689 0.32104 2.9899 1.7881 3.1397 1.8672zm0.61137-2.123c-0.56657 0.6873-4.4356-1.2421-6.049-2.0804-13.552-7.0428-16.182-9.2823-37.534-8.9901-21.351 0.29226-35.979 9.7016-36.802 10.664-0.57245 0.6696-1.3033 2.4575-1.9042 7.4379-0.60096 4.9804 0.16615 13.912-2.0093 13.901-1.8522-0.0092261-2.2551-16.99-1.4556-23.726 0.12275-1.0342 0.59585-2.8843 0.2534-3.8147-0.2993-0.81259-1.7634-0.81094-1.5297-2.1649 0.26563-1.5412 1.9177-0.7757 2.6373-1.5126 1.3628-1.396-0.73951-1.7264-1.0882-2.9477-0.51828-1.8153 0.97945-2.2836 2.3288-2.8568 1.4932-0.6338 1.2992-0.077097 2.5111-1.3187-1.6187-1.116-2.2043-2.6364 0.012221-3.4521 0.94129-0.34646 3.3903 0.1121 4.1278-0.40843 0.1923-0.13575 0.26837-0.91381 0.38684-1.073 1.1777-1.5847 0.88717-2.732 0.7677-4.5111-0.098269-1.4559-0.08505-2.7923 1.7681-2.9377 1.2366-0.096963 2.2422 0.85327 3.3501 1.133 1.2291 0.31052 0.76745 0.53708 1.7304-0.08632 1.6905-1.0952 0.53998-3.2291 1.8806-4.5021 1.8397-1.747 3.0456 0.81378 4.5226 1.007 3.2065 0.42025 2.1774-2.6428 4.0757-3.7652 2.2689-1.3404 2.4884 1.6077 3.9056 1.7127 1.2281 0.090577 3.4392-2.1384 4.5097-2.5537 3.1763-1.2328 4.7501 2.2363 7.7737 1.7938 2.1941-0.32116 2.7865-0.58343 4.7666 0.59076 1.922 1.1397 2.3787 0.32494 4.555 0.30862 1.5376-0.010879 2.4794 1.1976 3.7657 1.3237 0.64149 0.063144 1.2556-0.56546 1.9439-0.52596 2.4585 0.14024 2.6139 3.1305 4.567 3.9537 1.7846 0.75229 3.8826-0.3046 5.6537-0.50019 4.3213-0.47701 1.362 3.3194 1.484 5.5853 1.6963 0.37224 3.418-1.117 5.1065-0.84287 2.659 0.43184 1.6554 3.0238 1.0391 4.7713 1.8424-0.031217 6.6519-1.9549 7.8456 0.50539 0.61555 1.2686-0.81858 2.9621-0.79513 4.2517 0.032922 1.8153 1.4511 3.3173 1.9529 5.0354 0.67716 2.3193 1.6422 8.5357-0.05512 10.595z"/>
<path id="d" d="m61.198 11.84c2.978-5.7311 9.1937-9.6735 16.379-9.6735 6.7772 0 12.692 3.5073 15.841 8.7147 0.13342-0.031428 0.27255-0.048055 0.41557-0.048055h6.2762c0.99718 0 1.8056 0.80837 1.8056 1.8056s-0.80838 1.8056-1.8056 1.8056h-5.0676c0.51279 1.5994 0.78861 3.2969 0.78861 5.0556 0 9.5729-8.1724 17.333-18.254 17.333-10.081 0-18.254-7.7604-18.254-17.333 0-1.0269 0.094045-2.033 0.2744-3.0109-0.064299-3.1603-2.6218-5.6558-5.703-5.6558-2.842 0-5.2385 2.1232-5.6439 4.9328 0.27804 1.2026 0.42457 2.452 0.42457 3.7338 0 9.5729-8.1724 17.333-18.254 17.333-10.081 0-18.254-7.7604-18.254-17.333 0-1.7587 0.27581-3.4561 0.78861-5.0556h-5.0676c-0.99718 0-1.8056-0.80837-1.8056-1.8056s0.80837-1.8056 1.8056-1.8056h6.2762c0.14302 0 0.28215 0.016628 0.41557 0.048055 3.1489-5.2074 9.0634-8.7147 15.841-8.7147 7.1129 0 13.276 3.8633 16.288 9.5007 1.5799-2.2502 4.2088-3.723 7.1849-3.723 3.0516 0 5.7382 1.5485 7.3031 3.8958zm-30.776 22.104c8.401 0 15.211-6.467 15.211-14.444s-6.8103-14.444-15.211-14.444-15.211 6.467-15.211 14.444 6.8103 14.444 15.211 14.444zm47.155 0c8.401 0 15.211-6.467 15.211-14.444s-6.8103-14.444-15.211-14.444-15.211 6.467-15.211 14.444 6.8103 14.444 15.211 14.444z"/>
<filter id="l" x="-1%" y="-2.9%" width="102.1%" height="111.5%">
<feOffset dx="0" dy="2" in="SourceAlpha" result="shadowOffsetOuter1"/>
<feColorMatrix in="shadowOffsetOuter1" values="0 0 0 0 0   0 0 0 0 0   0 0 0 0 0  0 0 0 0.1 0"/>
</filter>
</defs>
<g fill="none" fill-rule="evenodd">
<g transform="translate(-24 -13)">
<g transform="translate(24.242 25.714)">
<mask id="h" fill="white">
<use xlink:href="#e"/>
</mask>
<use fill="#D0C6AC" xlink:href="#e"/>
<g fill="#AE5D29" mask="url(#h)">
<g transform="translate(-24.242)">
<rect width="200" height="174"/>
</g>
</g>
<path d="m118.18 64.719v5.7143c0 23.43-18.994 42.424-42.424 42.424-23.43 0-42.424-18.994-42.424-42.424v-5.7143c0 23.43 18.994 42.424 42.424 42.424 23.43 0 42.424-18.994 42.424-42.424z" fill="#000" fill-opacity=".1" mask="url(#h)"/>
</g>
<g transform="translate(0 121.43)">
<g transform="translate(24.242 20.827)">
<mask id="g" fill="white">
<use xlink:href="#c"/>
</mask>
<use fill="#E6E6E6" xlink:href="#c"/>
<g fill="#262E33" mask="url(#g)">
<g transform="translate(-24.242 -20.827)">
<rect width="200" height="79"/>
</g>
</g>
<g fill="#000" fill-opacity=".16" mask="url(#g)" opacity=".6">
<g transform="translate(45.455 -17.955)">
<ellipse cx="30.682" cy="20" rx="30.027" ry="19.329"/>
</g>
</g>
</g>
<g transform="translate(24.242 20.109)">
<path d="m100.26 1.1582c28.865 3.4033 51.255 27.953 51.255 57.733h-51.789c2.5765-8.6756 4.0619-18.882 4.0619-29.805 0-10.145-1.2814-19.672-3.5282-27.928zm-47.713 57.733h-52.547c-3.6798e-15 -30.048 22.796-54.771 52.037-57.819-2.2615 8.2765-3.5519 17.835-3.5519 28.015 0 10.923 1.4854 21.129 4.0619 29.805z" fill="#3A4C5A"/>
<path d="m112.88 41.655 6.7304-4.7853c1.4084-1.0014 3.3007-0.98506 4.6917 0.040524l4.487 3.3084-15.909 1.4364z" fill="#E6E6E6"/>
<path d="m52.273 0c-3.0303 13.885-1.7677 33.515 3.7879 58.891h-12.121l-10.606-25.855 4.5455-6.4636-4.5455-4.3091 14.394-21.545c1.5361-0.453 3.0513-0.6924 4.5455-0.71818z" fill="#2F4351"/>
<path transform="translate(106.82 29.445) scale(-1 1) translate(-106.82 -29.445)" d="m114.39 0c-3.0303 13.885-1.7677 33.515 3.7879 58.891h-12.121l-10.606-25.855 4.5455-6.4636-4.5455-4.3091 14.394-21.545c1.5361-0.453 3.0513-0.6924 4.5455-0.71818z" fill="#2F4351"/>
</g>
</g>
<g transform="translate(57.576 58.571)">
<g transform="translate(1.5152 37.143)" fill-rule="evenodd">
<mask id="f" fill="white">
<use xlink:href="#b"/>
</mask>
<use fill="#000000" fill-opacity=".7" xlink:href="#b"/>
<rect x="29.611" y="1.4091" width="23.537" height="11.273" rx="5" fill="#fff" mask="url(#f)"/>
<g fill="#FF4F6D" mask="url(#f)">
<g transform="translate(28.852 16.909)">
<ellipse cx="8.3519" cy="7.75" rx="8.3519" ry="7.75"/>
<ellipse cx="15.944" cy="7.75" rx="8.3519" ry="7.75"/>
</g>
</g>
</g>
<g transform="translate(21.212 28.571)" fill="#000" fill-opacity=".16">
<path d="m12 5.6667c0 3.1296 4.0294 5.6667 9 5.6667s9-2.5371 9-5.6667"/>
</g>
<g transform="translate(0 5.7143)" fill="#000" fill-opacity=".6">
<path d="m12.264 15.815c1.4014-2.6764 4.5568-4.5424 8.2248-4.5424 3.6551 0 6.8012 1.8528 8.2099 4.5141 0.41848 0.79055-0.17702 1.4375-0.77771 0.95811-1.8602-1.4846-4.5019-2.4118-7.4322-2.4118-2.8387 0-5.4065 0.87009-7.2554 2.2742-0.67601 0.51337-1.3793-0.00934-0.96943-0.79214z"/>
<path d="m56.282 15.815c1.4014-2.6764 4.5568-4.5424 8.2248-4.5424 3.6551 0 6.8012 1.8528 8.2099 4.5141 0.41848 0.79055-0.17702 1.4375-0.77771 0.95811-1.8602-1.4846-4.5019-2.4118-7.4322-2.4118-2.8387 0-5.4065 0.87009-7.2554 2.2742-0.67601 0.51337-1.3793-0.00934-0.96943-0.79214z"/>
</g>
<g fill="#000" fill-opacity=".6">
<g transform="translate(9.1071 4.25)" fill-rule="nonzero">
<path d="m2.7551 7.904c2.9711-3.902 11.117-6.0901 18.133-4.4819 0.8141 0.18659 1.6361-0.27811 1.836-1.0379s-0.29797-1.5271-1.1121-1.7136c-8.1483-1.8676-17.58 0.66612-21.331 5.5922-0.48561 0.63775-0.32535 1.5222 0.35796 1.9754 0.68331 0.45324 1.6309 0.30366 2.1165-0.3341z"/>
<path transform="translate(55.402 4.2778) scale(-1 1) translate(-55.402 -4.2778)" d="m46.773 7.904c2.9711-3.902 11.117-6.0901 18.133-4.4819 0.8141 0.18659 1.6361-0.27811 1.836-1.0379s-0.29797-1.5271-1.1121-1.7136c-8.1483-1.8676-17.58 0.66612-21.331 5.5922-0.48561 0.63775-0.32535 1.5222 0.35796 1.9754 0.68331 0.45324 1.6309 0.30366 2.1165-0.3341z"/>
</g>
</g>
</g>
<mask id="j" fill="white">
<use xlink:href="#i"/>
</mask>
<g mask="url(#j)">
<g transform="translate(-.75758)">
<g transform="translate(.7594)" fill-rule="evenodd">
<mask id="k" fill="white">
<use xlink:href="#a"/>
</mask>
<use fill="#2E3257" xlink:href="#a"/>
<g fill="#2C1B18" mask="url(#k)">
<rect width="200" height="200"/>
</g>
</g>
<g transform="translate(47.083 60.714)">
<use fill="black" filter="url(#l)" xlink:href="#d"/>
<use fill="#252C2F" fill-rule="evenodd" xlink:href="#d"/>
</g>
</g>
</g>
</g>
</g>
</svg>
